# xmcd
#
# Track frame offsets:
#	182
#	14415
#	36760
#	53037
#	77147
#	108582
#	127182
#	149117
#	165005
#	182540
#	201507
#	220015
#	239317
#	264677
#
# Disc length: 3832 seconds
#
# Revision: 5
# Processed by: cddbd v1.4PL0 Copyright (c) Steve Scherf et al.
# Submitted via: audiograbber 1.81.03
#
DISCID=ca0ef60e
DTITLE=Various Artist - Blues Town - Vol 2
DYEAR=1995
DGENRE=Blues
TTITLE0=R.J. Mischo - Rocket Boogie
TTITLE1=James Cotton - Living The Blues
TTITLE2=John Mayall - Without Her
TTITLE3=Duke Robillard - Never Let You Go
TTITLE4=Mighty Sam McClain - I'm Tired Of These Blues
TTITLE5=Chris Thomas - Kickin' True Blue
TTITLE6=Larry Garner - Don't Run Talking
TTITLE7=Good Time Charlie - I'm Moving Out
TTITLE8=Electric Kings - Heavy Heart
TTITLE9=Mojo Buford - Sittin' Here Thinkin'
TTITLE10=Jimmie Vaughan - Just Like Putty
TTITLE11=G. Love and Special Sauce - Blues Music
TTITLE12=Big Sugar - Wild Ox Moan
TTITLE13=Fred James - 100 Years Of The Blues
EXTD=
EXTT0=
EXTT1=
EXTT2=
EXTT3=
EXTT4=
EXTT5=
EXTT6=
EXTT7=
EXTT8=
EXTT9=
EXTT10=
EXTT11=
EXTT12=
EXTT13=
PLAYORDER=
